<svg id="aba73e51-c61e-4728-b08c-630b66ba873e" data-name="Livello 1" xmlns="http://www.w3.org/2000/svg" viewBox="0 0 500 500"><title>null-image</title><path d="M294.62,325.13a7.93,7.93,0,0,0-11.22,0L250,358.55l-33.42-33.42a7.93,7.93,0,0,0-11.22,11.22l33.42,33.42-33.42,33.42a7.93,7.93,0,0,0,11.22,11.22L250,381l33.42,33.42a7.93,7.93,0,0,0,11.22-11.22l-33.42-33.42,33.42-33.42A7.94,7.94,0,0,0,294.62,325.13ZM250,481.5A111.5,111.5,0,1,1,361.5,370,111.63,111.63,0,0,1,250,481.5Zm0-206A94.5,94.5,0,1,0,344.5,370,94.61,94.61,0,0,0,250,275.5Z" fill="#d9534f"/><path d="M487.07,19.52H12.93A7.93,7.93,0,0,0,5,27.45V399.21a7.93,7.93,0,0,0,7.93,7.93H144.87a110.5,110.5,0,0,1-4.32-15.87H20.85V251.72L173.19,112.78,332.64,265.4a7.92,7.92,0,0,0,11,0l71.2-67.93,64.32,61.19v132.6H359.46a110.5,110.5,0,0,1-4.32,15.86H487.07A7.93,7.93,0,0,0,495,399.2V27.45A7.93,7.93,0,0,0,487.07,19.52Zm-7.93,217.26-58.86-56a7.94,7.94,0,0,0-10.94,0L338.15,248.7,178.81,96.2A7.92,7.92,0,0,0,168,96.06L20.86,230.25V35.38H479.14Z"/></svg>