<?xml version="1.0" encoding="UTF-8"?>
<svg width="50px" height="50px" viewBox="0 0 50 50" version="1.1" xmlns="http://www.w3.org/2000/svg" xmlns:xlink="http://www.w3.org/1999/xlink">
    <!-- Generator: Sketch 42 (36781) - http://www.bohemiancoding.com/sketch -->
    <title>ciak</title>
    <desc>Created with Sketch.</desc>
    <defs></defs>
    <g id="Page-1" stroke="none" stroke-width="1" fill="none" fill-rule="evenodd">
        <g id="ciak" stroke-width="1.2" stroke="#3A3A3A">
            <polygon id="Stroke-1" points="41.1443 28.8728 11.3493 28.8728 11.3493 32.4938 11.3493 43.3288 41.1443 43.3288"></polygon>
            <path d="M14.5003,33.0823 L28.0113,33.0823" id="Stroke-3"></path>
            <path d="M14.5003,35.8943 L21.9723,35.8943" id="Stroke-4"></path>
            <path d="M24.2371,35.8943 L28.0111,35.8943" id="Stroke-5"></path>
            <polygon id="Stroke-6" points="11.349 28.8734 41.144 28.8734 41.144 23.2144 11.349 23.2144"></polygon>
            <path d="M11.3494,28.8728 L16.1404,23.2138" id="Stroke-8"></path>
            <path d="M16.2786,28.9021 L21.0696,23.2431" id="Stroke-10"></path>
            <path d="M21.2083,28.9309 L25.9993,23.2719" id="Stroke-11"></path>
            <path d="M26.1375,28.9602 L30.9285,23.3012" id="Stroke-12"></path>
            <path d="M31.0672,28.9895 L35.8572,23.3305" id="Stroke-13"></path>
            <path d="M35.9964,29.0183 L40.7874,23.3593" id="Stroke-14"></path>
            <polygon id="Stroke-16" points="38.3978 8.7415 9.7418 16.8995 11.2908 22.3425 39.9468 14.1845"></polygon>
            <path d="M11.2908,22.3426 L14.3488,15.5886" id="Stroke-18"></path>
            <path d="M16.0398,21.0208 L19.0978,14.2658" id="Stroke-21"></path>
            <path d="M20.7889,19.699 L23.8469,12.944" id="Stroke-22"></path>
            <path d="M25.5379,18.3772 L28.5959,11.6222" id="Stroke-23"></path>
            <path d="M30.2869,17.0554 L33.3449,10.3004" id="Stroke-24"></path>
            <path d="M35.0359,15.7337 L38.0939,8.9787" id="Stroke-26"></path>
        </g>
    </g>
</svg>