<?xml version="1.0" encoding="UTF-8"?>
<svg width="50px" height="50px" viewBox="0 0 50 50" version="1.1" xmlns="http://www.w3.org/2000/svg" xmlns:xlink="http://www.w3.org/1999/xlink">
    <title>Conference</title>
    <defs></defs>
    <g id="Page-1" stroke="none" stroke-width="1" fill="none" fill-rule="evenodd">
        <g id="Conferenza" stroke="#3A3A3A" stroke-width="1.2">
            <path d="M24.58,36.3643 C20.725,36.3643 17.601,39.4893 17.601,43.3433 L31.559,43.3433 C31.559,39.4893 28.434,36.3643 24.58,36.3643 Z" id="Stroke-1"></path>
            <path d="M27.4668,31.2749 C27.4668,32.9839 26.0808,34.3699 24.3718,34.3699 C22.6628,34.3699 21.2778,32.9839 21.2778,31.2749 C21.2778,29.5659 22.6628,28.1799 24.3718,28.1799 C26.0808,28.1799 27.4668,29.5659 27.4668,31.2749 Z" id="Stroke-3"></path>
            <path d="M21.6157,37.1231 C20.5897,35.4701 18.7577,34.3701 16.6687,34.3701 C13.4537,34.3701 10.8487,36.9751 10.8487,40.1891 L18.2997,40.1891" id="Stroke-5"></path>
            <path d="M18.4853,30.0576 C18.4853,31.3326 17.4513,32.3666 16.1763,32.3666 C14.9013,32.3666 13.8673,31.3326 13.8673,30.0576 C13.8673,28.7826 14.9013,27.7486 16.1763,27.7486 C17.4513,27.7486 18.4853,28.7826 18.4853,30.0576 Z" id="Stroke-7"></path>
            <path d="M27.5,37.1231 C28.526,35.4701 30.358,34.3701 32.447,34.3701 C35.662,34.3701 38.267,36.9751 38.267,40.1891 L30.816,40.1891" id="Stroke-9"></path>
            <path d="M30.5747,30.0899 C30.5747,31.3649 31.6087,32.3989 32.8837,32.3989 C34.1587,32.3989 35.1927,31.3649 35.1927,30.0899 C35.1927,28.8149 34.1587,27.7809 32.8837,27.7809 C31.6087,27.7809 30.5747,28.8149 30.5747,30.0899 Z" id="Stroke-11"></path>
            <polyline id="Stroke-13" points="9.4672 29.8115 9.4672 23.8965 39.6482 23.8965 39.6482 29.8115"></polyline>
            <polygon id="Stroke-15" points="8.6 23.8969 40.516 23.8969 40.516 21.1509 8.6 21.1509"></polygon>
            <polyline id="Stroke-17" points="13.1806 21.1514 13.1806 14.3754 18.7966 11.3934"></polyline>
            <path d="M18.7866,11.4815 L18.4376,10.8225 C18.0996,10.1835 18.3426,9.3905 18.9826,9.0515 L21.4346,7.7525 C22.0746,7.4145 22.8676,7.6575 23.2056,8.2975 L23.5546,8.9565 C23.8936,9.5955 23.6496,10.3885 23.0106,10.7275 L20.5576,12.0265 C19.9186,12.3645 19.1256,12.1215 18.7866,11.4815 Z" id="Stroke-18"></path>
        </g>
    </g>
</svg>
