<?xml version="1.0" encoding="UTF-8"?>
<svg width="50px" height="50px" viewBox="0 0 50 50" version="1.1" xmlns="http://www.w3.org/2000/svg" xmlns:xlink="http://www.w3.org/1999/xlink">
    <!-- Generator: Sketch 48.2 (47327) - http://www.bohemiancoding.com/sketch -->
    <title>oscar</title>
    <desc>Created with Sketch.</desc>
    <defs>
        <polygon id="path-1" points="0 47.7570162 25.3097 47.7570162 25.3097 -0.000389189189 0 -0.000389189189"></polygon>
    </defs>
    <g id="Page-1" stroke="none" stroke-width="1" fill="none" fill-rule="evenodd">
        <g id="oscar">
            <g id="Oscar" transform="translate(12.000000, 1.000000)">
                <g id="Page-1">
                    <path d="M15.47455,39.0075243 C15.47455,39.0075243 15.07935,37.5545514 15.06765,36.8656865 C15.05595,36.1755243 15.92305,34.0907676 16.02705,32.3653622 C16.13105,30.6386595 15.71895,29.0559568 15.71895,29.0559568 L15.69035,27.3305514 C15.69035,27.3305514 16.42355,25.9385514 16.38195,23.4464432 C16.34035,20.9530378 15.72025,18.8955243 15.72025,18.8955243 L15.85415,17.4075243 C15.85415,17.4075243 16.25325,17.3193081 16.83045,16.9379027 C17.41155,16.5577946 17.47525,15.7353081 17.59745,15.0684973 C17.71965,14.4029838 18.01995,11.8524973 18.01995,11.8524973 C18.01995,11.8524973 18.33455,11.3686054 18.31115,9.96363243 C18.28645,8.55865946 16.38585,7.87368649 16.38585,7.87368649 C16.38585,7.87368649 14.77645,7.0524973 14.45405,6.84492973 C14.13165,6.63865946 13.85475,6.00687568 14.11085,5.36601081 C14.36565,4.72384865 14.20185,2.89725405 14.18495,1.86201081 C14.16805,0.828064865 12.89015,0.769686486 12.33245,0.778767568 C11.77475,0.789145946 10.49945,0.889037838 10.51635,1.92428108 C10.53455,2.95822703 10.43185,4.79001081 10.70875,5.42309189 C10.98305,6.05487568 10.72955,6.69574054 10.41625,6.91238919 C10.09905,7.13033514 8.51695,8.00601081 8.51695,8.00601081 C8.51695,8.00601081 6.64365,8.75455135 6.66705,10.158227 C6.69045,11.5644973 7.01805,12.0367135 7.01805,12.0367135 C7.01805,12.0367135 7.40675,14.5755243 7.54975,15.2371459 C7.69405,15.9000649 7.78635,16.7186595 8.37915,17.0806054 C8.96805,17.4412541 9.36975,17.5164973 9.36975,17.5164973 L9.55305,18.9993081 C9.55305,18.9993081 9.00445,21.0762811 9.04605,23.5696865 C9.08765,26.0617946 9.86765,27.4278486 9.86765,27.4278486 L9.89755,29.1532541 C9.89755,29.1532541 9.53875,30.750227 9.70125,32.4717405 C9.86375,34.1932541 10.80105,36.2468757 10.81275,36.9357405 C10.82445,37.6259027 10.47605,39.0918486 10.47605,39.0918486 L15.47455,39.0075243 Z" id="Stroke-1" stroke="#3A3A3A" stroke-width="1.2"></path>
                    <mask id="mask-2" fill="white">
                        <use xlink:href="#path-1"></use>
                    </mask>
                    <g id="Clip-4"></g>
                    <polygon id="Stroke-3" stroke="#3A3A3A" stroke-width="1.2" mask="url(#mask-2)" points="7.0278 42.5431784 18.2819 42.5431784 18.2819 39.0521514 7.0278 39.0521514"></polygon>
                    <polygon id="Stroke-5" stroke="#3A3A3A" stroke-width="1.2" mask="url(#mask-2)" points="3.2071 46.9786378 22.1013 46.9786378 22.1013 42.5444757 3.2071 42.5444757"></polygon>
                    <path d="M0.00026,46.9788973 L25.30866,46.9788973" id="Stroke-6" stroke="#3A3A3A" stroke-width="1.2" mask="url(#mask-2)"></path>
                </g>
            </g>
        </g>
    </g>
</svg>