<svg xmlns="http://www.w3.org/2000/svg" width="50" height="50" viewBox="0 0 50 50">
  <g fill="#3A3A3A" transform="translate(0 10.294)">
    <path
      d="M24.9694709 15.4563821C32.1635342 15.4563821 37.9956964 21.2885443 37.9956964 28.4826076L37.9956964 29.2902056 11.9432454 29.2902056 11.9432454 28.4826076C11.9432454 21.2885443 17.7754076 15.4563821 24.9694709 15.4563821zM24.9694709 17.0715782C18.938974 17.0715782 14.0008932 21.7498389 13.5865793 27.6750095L36.3523625 27.6750095C35.9380486 21.7498389 30.9999678 17.0715782 24.9694709 17.0715782zM29.2631474 7.80481346C29.2631474 5.25917087 27.1997213 3.19574483 24.6540787 3.19574483 22.1073913 3.19574483 20.0445199 5.25874514 20.0445199 7.80481346 20.0445199 10.3508818 22.1073913 12.4138821 24.6540787 12.4138821 27.1997213 12.4138821 29.2631474 10.350456 29.2631474 7.80481346zM30.8783434 7.80481346C30.8783434 11.2425042 28.0917695 14.0290782 24.6540787 14.0290782 21.2153205 14.0290782 18.4293238 11.2429073 18.4293238 7.80481346 18.4293238 4.36671958 21.2153205 1.58054875 24.6540787 1.58054875 28.0917695 1.58054875 30.8783434 4.36712271 30.8783434 7.80481346z"/>
    <path
      d="M11.1189807 13.5791762C14.4035036 13.5791762 17.3942102 15.2793817 19.0946333 18.0181533L20.4668574 17.1661795C18.4747401 13.9575932 14.9679219 11.9639801 11.1189807 11.9639801 5.04746539 11.9639801.125108135 16.88781.125108135 22.9607938L.125108135 23.7683919 13.974863 23.7683919 13.974863 22.1531958 1.77457485 22.1531958C2.18402148 17.3501855 6.21159149 13.5791762 11.1189807 13.5791762zM14.5657454 5.42594091C14.5657454 3.37686695 12.9057507 1.71687228 10.8566768 1.71687228 8.80772345 1.71687228 7.14809833 3.37674629 7.14809833 5.42594091 7.14809833 7.47513552 8.80772345 9.13500953 10.8566768 9.13500953 12.9057507 9.13500953 14.5657454 7.47501486 14.5657454 5.42594091zM16.1809415 5.42594091C16.1809415 8.36706303 13.7977989 10.7502056 10.8566768 10.7502056 7.91562106 10.7502056 5.53290225 8.36712947 5.53290225 5.42594091 5.53290225 2.48475235 7.91562106.1016762 10.8566768.1016762 13.7977989.1016762 16.1809415 2.48481879 16.1809415 5.42594091zM35.8864317 22.1531958L35.8864317 23.7683919 49.7361866 23.7683919 49.7361866 22.9607938C49.7361866 16.8875645 44.8135839 11.9639801 38.7408434 11.9639801 34.893146 11.9639801 31.3864413 13.9577757 29.3944373 17.1661795L30.7666614 18.0181533C32.4669877 15.2795376 35.4575979 13.5791762 38.7408434 13.5791762 43.6494377 13.5791762 47.6772649 17.350013 48.0867205 22.1531958L35.8864317 22.1531958zM33.679667 5.42594091C33.679667 2.48513026 36.0634784.1016762 39.0039317.1016762 41.9451867.1016762 44.3291768 2.48495158 44.3291768 5.42594091 44.3291768 8.36693023 41.9451867 10.7502056 39.0039317 10.7502056 36.0634784 10.7502056 33.679667 8.36675155 33.679667 5.42594091zM35.294863 5.42594091C35.294863 7.47464917 36.9554724 9.13500953 39.0039317 9.13500953 41.0532469 9.13500953 42.7139807 7.47477364 42.7139807 5.42594091 42.7139807 3.37710818 41.0532469 1.71687228 39.0039317 1.71687228 36.9554724 1.71687228 35.294863 3.37723264 35.294863 5.42594091z"/>
  </g>
</svg>
