<?xml version="1.0" encoding="UTF-8"?>
<svg width="50px" height="50px" viewBox="0 0 50 50" version="1.1" xmlns="http://www.w3.org/2000/svg" xmlns:xlink="http://www.w3.org/1999/xlink">
    <title>share</title>
    <g id="Page-1" stroke="none" stroke-width="1" fill="none" fill-rule="evenodd">
        <g id="share" stroke="#3A3A3A" stroke-width="1.2">
            <path d="M28.7841,27.0101 C28.7841,28.6921 27.4201,30.0561 25.7381,30.0561 C24.0551,30.0561 22.6911,28.6921 22.6911,27.0101 C22.6911,25.3271 24.0551,23.9641 25.7381,23.9641 C27.4201,23.9641 28.7841,25.3271 28.7841,27.0101 Z" id="Stroke-1"></path>
            <path d="M28.2675,25.3221 L36.5265,19.5961" id="Stroke-3"></path>
            <path d="M39.6366,18.7157 C39.6366,19.7397 38.8066,20.5697 37.7826,20.5697 C36.7586,20.5697 35.9286,19.7397 35.9286,18.7157 C35.9286,17.6917 36.7586,16.8617 37.7826,16.8617 C38.8066,16.8617 39.6366,17.6917 39.6366,18.7157 Z" id="Stroke-5"></path>
            <path d="M28.0468,29.1405 L36.3058,34.8675" id="Stroke-7"></path>
            <path d="M39.4154,35.7469 C39.4154,34.7229 38.5854,33.8929 37.5614,33.8929 C36.5374,33.8929 35.7074,34.7229 35.7074,35.7469 C35.7074,36.7709 36.5374,37.6009 37.5614,37.6009 C38.5854,37.6009 39.4154,36.7709 39.4154,35.7469 Z" id="Stroke-9"></path>
            <path d="M23.6473,24.8719 L17.2173,15.5979" id="Stroke-11"></path>
            <path d="M16.2289,12.1063 C17.3789,12.1063 18.3109,13.0383 18.3109,14.1883 C18.3109,15.3373 17.3789,16.2703 16.2289,16.2703 C15.0799,16.2703 14.1469,15.3373 14.1469,14.1883 C14.1469,13.0383 15.0799,12.1063 16.2289,12.1063 Z" id="Stroke-13"></path>
            <path d="M26.1205,9.454 C26.1205,10.478 25.2905,11.308 24.2665,11.308 C23.2425,11.308 22.4125,10.478 22.4125,9.454 C22.4125,8.43 23.2425,7.6 24.2665,7.6 C25.2905,7.6 26.1205,8.43 26.1205,9.454 Z" id="Stroke-15"></path>
            <path d="M23.3656,28.8104 L14.0916,35.2404" id="Stroke-17"></path>
            <path d="M10.6,36.2284 C10.6,35.0784 11.532,34.1464 12.682,34.1464 C13.832,34.1464 14.764,35.0784 14.764,36.2284 C14.764,37.3784 13.832,38.3104 12.682,38.3104 C11.532,38.3104 10.6,37.3784 10.6,36.2284 Z" id="Stroke-19"></path>
            <path d="M18.3109,13.4257 L23.0179,10.3357" id="Stroke-21"></path>
            <path d="M28.4926,40.7367 C28.4926,39.7127 29.3226,38.8827 30.3466,38.8827 C31.3706,38.8827 32.2006,39.7127 32.2006,40.7367 C32.2006,41.7607 31.3706,42.5907 30.3466,42.5907 C29.3226,42.5907 28.4926,41.7607 28.4926,40.7367 Z" id="Stroke-23"></path>
            <path d="M36.3016,36.7655 L31.5946,39.8555" id="Stroke-25"></path>
        </g>
    </g>
</svg>
