<?xml version="1.0" encoding="UTF-8"?>
<svg width="54px" height="54px" viewBox="0 0 54 54" version="1.1" xmlns="http://www.w3.org/2000/svg" xmlns:xlink="http://www.w3.org/1999/xlink">
    <!-- Generator: Sketch 42 (36781) - http://www.bohemiancoding.com/sketch -->
    <title>time</title>
    <desc>Created with Sketch.</desc>
    <defs></defs>
    <g id="Page-1" stroke="none" stroke-width="1" fill="none" fill-rule="evenodd">
        <g id="time">
            <path d="M26.9158,9.9998 C17.0208,9.9998 8.9998,18.0208 8.9998,27.9158 C8.9998,37.8108 17.0208,45.8318 26.9158,45.8318 C36.8108,45.8318 44.8318,37.8108 44.8318,27.9158 C44.8318,18.0208 36.8108,9.9998 26.9158,9.9998 M26.9158,11.1998 C36.1328,11.1998 43.6318,18.6988 43.6318,27.9158 C43.6318,37.1328 36.1328,44.6318 26.9158,44.6318 C17.6988,44.6318 10.1998,37.1328 10.1998,27.9158 C10.1998,18.6988 17.6988,11.1998 26.9158,11.1998" id="Fill-1" fill="#3A3A3A"></path>
            <path d="M26.9158,12.9817 C18.6678,12.9817 11.9818,19.6677 11.9818,27.9157 C11.9818,36.1637 18.6678,42.8497 26.9158,42.8497 C35.1638,42.8497 41.8498,36.1637 41.8498,27.9157 C41.8498,19.6677 35.1638,12.9817 26.9158,12.9817 M26.9158,14.1817 C34.4888,14.1817 40.6498,20.3427 40.6498,27.9157 C40.6498,35.4887 34.4888,41.6497 26.9158,41.6497 C19.3428,41.6497 13.1818,35.4887 13.1818,27.9157 C13.1818,20.3427 19.3428,14.1817 26.9158,14.1817" id="Fill-4" fill="#3A3A3A"></path>
            <polyline id="Stroke-6" stroke="#3A3A3A" stroke-width="1.2" points="26.9158 20.5276 26.9158 27.9156 31.5978 30.5126"></polyline>
            <path d="M26.9158,13.947 L26.9158,17.376" id="Stroke-8" stroke="#3A3A3A" stroke-width="1.2"></path>
            <path d="M26.9158,38.4553 L26.9158,41.8843" id="Stroke-10" stroke="#3A3A3A" stroke-width="1.2"></path>
            <path d="M40.8846,27.9158 L37.4556,27.9158" id="Stroke-12" stroke="#3A3A3A" stroke-width="1.2"></path>
            <path d="M16.3763,27.9158 L12.9473,27.9158" id="Stroke-14" stroke="#3A3A3A" stroke-width="1.2"></path>
        </g>
    </g>
</svg>