<?xml version="1.0" encoding="UTF-8"?>
<svg width="18px" height="18px" viewBox="0 0 18 18" version="1.1" xmlns="http://www.w3.org/2000/svg" xmlns:xlink="http://www.w3.org/1999/xlink">
    <!-- Generator: Sketch 58 (84663) - https://sketch.com -->
    <title>file</title>
    <desc>Created with Sketch.</desc>
    <g id="file" stroke="none" stroke-width="1" fill="none" fill-rule="evenodd">
        <path d="M15.7455357,3.81696429 L12.6116071,0.683035714 C12.2399554,0.311383929 11.4966518,0 10.9642857,0 L1.96428571,0 C1.43191964,0 1,0.431919643 1,0.964285714 L1,17.0357143 C1,17.5680804 1.43191964,18 1.96428571,18 L15.4642857,18 C15.9966518,18 16.4285714,17.5680804 16.4285714,17.0357143 L16.4285714,5.46428571 C16.4285714,4.93191964 16.1171875,4.18861607 15.7455357,3.81696429 Z M11.2857143,1.36607143 C11.4564732,1.42633929 11.6272321,1.51674107 11.6975446,1.58705357 L14.8415179,4.73102679 C14.9118304,4.80133929 15.0022321,4.97209821 15.0625,5.14285714 L11.2857143,5.14285714 L11.2857143,1.36607143 Z M15.1428571,16.7142857 L2.28571429,16.7142857 L2.28571429,1.28571429 L10,1.28571429 L10,5.46428571 C10,5.99665179 10.4319196,6.42857143 10.9642857,6.42857143 L15.1428571,6.42857143 L15.1428571,16.7142857 Z M4.85714286,8.03571429 L4.85714286,8.67857143 C4.85714286,8.859375 4.99776786,9 5.17857143,9 L12.25,9 C12.4308036,9 12.5714286,8.859375 12.5714286,8.67857143 L12.5714286,8.03571429 C12.5714286,7.85491071 12.4308036,7.71428571 12.25,7.71428571 L5.17857143,7.71428571 C4.99776786,7.71428571 4.85714286,7.85491071 4.85714286,8.03571429 Z M12.25,10.2857143 L5.17857143,10.2857143 C4.99776786,10.2857143 4.85714286,10.4263393 4.85714286,10.6071429 L4.85714286,11.25 C4.85714286,11.4308036 4.99776786,11.5714286 5.17857143,11.5714286 L12.25,11.5714286 C12.4308036,11.5714286 12.5714286,11.4308036 12.5714286,11.25 L12.5714286,10.6071429 C12.5714286,10.4263393 12.4308036,10.2857143 12.25,10.2857143 Z M12.25,12.8571429 C12.4308036,12.8571429 12.5714286,12.9977679 12.5714286,13.1785714 L12.5714286,13.8214286 C12.5714286,14.0022321 12.4308036,14.1428571 12.25,14.1428571 L5.17857143,14.1428571 C4.99776786,14.1428571 4.85714286,14.0022321 4.85714286,13.8214286 L4.85714286,13.1785714 C4.85714286,12.9977679 4.99776786,12.8571429 5.17857143,12.8571429 L12.25,12.8571429 Z" fill="#000000" fill-rule="nonzero"></path>
    </g>
</svg>